<mxfile host="app.diagrams.net" agent="Mozilla/5.0 (Windows NT 10.0; Win64; x64) AppleWebKit/537.36 (KHTML, like Gecko) Chrome/138.0.0.0 Safari/537.36" version="27.2.0">
  <diagram name="Page-1" id="Hihsc3DYe73ga6PO8Z8v">
    <mxGraphModel dx="1042" dy="527" grid="1" gridSize="10" guides="1" tooltips="1" connect="1" arrows="1" fold="1" page="1" pageScale="1" pageWidth="850" pageHeight="1100" math="0" shadow="0">
      <root>
        <mxCell id="0" />
        <mxCell id="1" parent="0" />
        <mxCell id="qWD8q-UGtxWcJ_SHbMnj-3" style="edgeStyle=orthogonalEdgeStyle;rounded=0;orthogonalLoop=1;jettySize=auto;html=1;entryX=0;entryY=0.5;entryDx=0;entryDy=0;" edge="1" parent="1" source="qWD8q-UGtxWcJ_SHbMnj-1" target="qWD8q-UGtxWcJ_SHbMnj-2">
          <mxGeometry relative="1" as="geometry" />
        </mxCell>
        <mxCell id="qWD8q-UGtxWcJ_SHbMnj-1" value="Frontend" style="rounded=1;whiteSpace=wrap;html=1;" vertex="1" parent="1">
          <mxGeometry x="60" y="180" width="90" height="130" as="geometry" />
        </mxCell>
        <mxCell id="qWD8q-UGtxWcJ_SHbMnj-10" style="edgeStyle=orthogonalEdgeStyle;rounded=0;orthogonalLoop=1;jettySize=auto;html=1;exitX=1;exitY=0.5;exitDx=0;exitDy=0;entryX=0;entryY=0.5;entryDx=0;entryDy=0;" edge="1" parent="1" source="qWD8q-UGtxWcJ_SHbMnj-2" target="qWD8q-UGtxWcJ_SHbMnj-5">
          <mxGeometry relative="1" as="geometry" />
        </mxCell>
        <mxCell id="qWD8q-UGtxWcJ_SHbMnj-2" value="apiGateway" style="rounded=1;whiteSpace=wrap;html=1;" vertex="1" parent="1">
          <mxGeometry x="260" y="217.5" width="100" height="55" as="geometry" />
        </mxCell>
        <mxCell id="qWD8q-UGtxWcJ_SHbMnj-4" value="User Service" style="rounded=1;whiteSpace=wrap;html=1;" vertex="1" parent="1">
          <mxGeometry x="420" y="120" width="115" height="50" as="geometry" />
        </mxCell>
        <mxCell id="qWD8q-UGtxWcJ_SHbMnj-5" value="Problem Service" style="rounded=1;whiteSpace=wrap;html=1;" vertex="1" parent="1">
          <mxGeometry x="415" y="218.75" width="120" height="52.5" as="geometry" />
        </mxCell>
        <mxCell id="qWD8q-UGtxWcJ_SHbMnj-13" style="edgeStyle=orthogonalEdgeStyle;rounded=0;orthogonalLoop=1;jettySize=auto;html=1;exitX=1;exitY=0.5;exitDx=0;exitDy=0;" edge="1" parent="1" source="qWD8q-UGtxWcJ_SHbMnj-6" target="qWD8q-UGtxWcJ_SHbMnj-11">
          <mxGeometry relative="1" as="geometry" />
        </mxCell>
        <mxCell id="qWD8q-UGtxWcJ_SHbMnj-6" value="Submission Service" style="rounded=1;whiteSpace=wrap;html=1;" vertex="1" parent="1">
          <mxGeometry x="415" y="320" width="120" height="50" as="geometry" />
        </mxCell>
        <mxCell id="qWD8q-UGtxWcJ_SHbMnj-7" value="" style="curved=1;endArrow=classic;html=1;rounded=0;exitX=0.75;exitY=0;exitDx=0;exitDy=0;entryX=0;entryY=0.75;entryDx=0;entryDy=0;" edge="1" parent="1" source="qWD8q-UGtxWcJ_SHbMnj-2" target="qWD8q-UGtxWcJ_SHbMnj-4">
          <mxGeometry width="50" height="50" relative="1" as="geometry">
            <mxPoint x="400" y="300" as="sourcePoint" />
            <mxPoint x="450" y="250" as="targetPoint" />
            <Array as="points">
              <mxPoint x="380" y="158" />
            </Array>
          </mxGeometry>
        </mxCell>
        <mxCell id="qWD8q-UGtxWcJ_SHbMnj-8" value="" style="curved=1;endArrow=classic;html=1;rounded=0;exitX=0.75;exitY=1;exitDx=0;exitDy=0;entryX=0;entryY=0.5;entryDx=0;entryDy=0;" edge="1" parent="1" source="qWD8q-UGtxWcJ_SHbMnj-2" target="qWD8q-UGtxWcJ_SHbMnj-6">
          <mxGeometry width="50" height="50" relative="1" as="geometry">
            <mxPoint x="400" y="300" as="sourcePoint" />
            <mxPoint x="450" y="250" as="targetPoint" />
            <Array as="points">
              <mxPoint x="350" y="300" />
            </Array>
          </mxGeometry>
        </mxCell>
        <mxCell id="qWD8q-UGtxWcJ_SHbMnj-17" style="edgeStyle=orthogonalEdgeStyle;rounded=0;orthogonalLoop=1;jettySize=auto;html=1;entryX=0.5;entryY=0;entryDx=0;entryDy=0;" edge="1" parent="1" source="qWD8q-UGtxWcJ_SHbMnj-11" target="qWD8q-UGtxWcJ_SHbMnj-15">
          <mxGeometry relative="1" as="geometry" />
        </mxCell>
        <mxCell id="qWD8q-UGtxWcJ_SHbMnj-11" value="Submission Queue" style="sketch=0;outlineConnect=0;fontColor=#232F3E;gradientColor=none;strokeColor=#232F3E;fillColor=#ffffff;dashed=0;verticalLabelPosition=bottom;verticalAlign=top;align=center;html=1;fontSize=12;fontStyle=0;aspect=fixed;shape=mxgraph.aws4.resourceIcon;resIcon=mxgraph.aws4.queue;" vertex="1" parent="1">
          <mxGeometry x="660" y="315" width="60" height="60" as="geometry" />
        </mxCell>
        <mxCell id="qWD8q-UGtxWcJ_SHbMnj-12" value="Socket&amp;nbsp;" style="rounded=1;whiteSpace=wrap;html=1;" vertex="1" parent="1">
          <mxGeometry x="150" y="390" width="120" height="50" as="geometry" />
        </mxCell>
        <mxCell id="qWD8q-UGtxWcJ_SHbMnj-14" value="send submission" style="text;html=1;align=center;verticalAlign=middle;resizable=0;points=[];autosize=1;strokeColor=none;fillColor=none;" vertex="1" parent="1">
          <mxGeometry x="550" y="315" width="110" height="30" as="geometry" />
        </mxCell>
        <mxCell id="qWD8q-UGtxWcJ_SHbMnj-20" style="edgeStyle=orthogonalEdgeStyle;rounded=0;orthogonalLoop=1;jettySize=auto;html=1;exitX=0;exitY=0.5;exitDx=0;exitDy=0;" edge="1" parent="1" source="qWD8q-UGtxWcJ_SHbMnj-15" target="qWD8q-UGtxWcJ_SHbMnj-19">
          <mxGeometry relative="1" as="geometry" />
        </mxCell>
        <mxCell id="qWD8q-UGtxWcJ_SHbMnj-15" value="Evaluator Service" style="rounded=1;whiteSpace=wrap;html=1;" vertex="1" parent="1">
          <mxGeometry x="630" y="460" width="120" height="60" as="geometry" />
        </mxCell>
        <mxCell id="qWD8q-UGtxWcJ_SHbMnj-18" value="pick from queue" style="text;html=1;align=center;verticalAlign=middle;resizable=0;points=[];autosize=1;strokeColor=none;fillColor=none;" vertex="1" parent="1">
          <mxGeometry x="680" y="410" width="110" height="30" as="geometry" />
        </mxCell>
        <mxCell id="qWD8q-UGtxWcJ_SHbMnj-22" style="edgeStyle=orthogonalEdgeStyle;rounded=0;orthogonalLoop=1;jettySize=auto;html=1;entryX=0.5;entryY=1;entryDx=0;entryDy=0;" edge="1" parent="1" source="qWD8q-UGtxWcJ_SHbMnj-19" target="qWD8q-UGtxWcJ_SHbMnj-6">
          <mxGeometry relative="1" as="geometry" />
        </mxCell>
        <mxCell id="qWD8q-UGtxWcJ_SHbMnj-19" value="Evaluation queue" style="sketch=0;outlineConnect=0;fontColor=#232F3E;gradientColor=none;strokeColor=#232F3E;fillColor=#ffffff;dashed=0;verticalLabelPosition=bottom;verticalAlign=top;align=center;html=1;fontSize=12;fontStyle=0;aspect=fixed;shape=mxgraph.aws4.resourceIcon;resIcon=mxgraph.aws4.queue;" vertex="1" parent="1">
          <mxGeometry x="445" y="460" width="60" height="60" as="geometry" />
        </mxCell>
        <mxCell id="qWD8q-UGtxWcJ_SHbMnj-21" value="send result" style="text;html=1;align=center;verticalAlign=middle;resizable=0;points=[];autosize=1;strokeColor=none;fillColor=none;" vertex="1" parent="1">
          <mxGeometry x="530" y="488" width="80" height="30" as="geometry" />
        </mxCell>
        <mxCell id="qWD8q-UGtxWcJ_SHbMnj-23" value="picks result" style="text;html=1;align=center;verticalAlign=middle;resizable=0;points=[];autosize=1;strokeColor=none;fillColor=none;" vertex="1" parent="1">
          <mxGeometry x="470" y="410" width="80" height="30" as="geometry" />
        </mxCell>
        <mxCell id="qWD8q-UGtxWcJ_SHbMnj-24" value="" style="curved=1;endArrow=classic;html=1;rounded=0;entryX=1;entryY=0.75;entryDx=0;entryDy=0;exitX=0.125;exitY=1;exitDx=0;exitDy=0;exitPerimeter=0;" edge="1" parent="1" source="qWD8q-UGtxWcJ_SHbMnj-6" target="qWD8q-UGtxWcJ_SHbMnj-12">
          <mxGeometry width="50" height="50" relative="1" as="geometry">
            <mxPoint x="400" y="380" as="sourcePoint" />
            <mxPoint x="450" y="330" as="targetPoint" />
            <Array as="points">
              <mxPoint x="340" y="430" />
              <mxPoint x="310" y="435" />
            </Array>
          </mxGeometry>
        </mxCell>
        <mxCell id="qWD8q-UGtxWcJ_SHbMnj-25" value="" style="curved=1;endArrow=classic;html=1;rounded=0;entryX=0.5;entryY=1;entryDx=0;entryDy=0;exitX=0;exitY=0.5;exitDx=0;exitDy=0;" edge="1" parent="1" source="qWD8q-UGtxWcJ_SHbMnj-12" target="qWD8q-UGtxWcJ_SHbMnj-1">
          <mxGeometry width="50" height="50" relative="1" as="geometry">
            <mxPoint x="400" y="380" as="sourcePoint" />
            <mxPoint x="450" y="330" as="targetPoint" />
            <Array as="points">
              <mxPoint x="110" y="370" />
            </Array>
          </mxGeometry>
        </mxCell>
        <mxCell id="qWD8q-UGtxWcJ_SHbMnj-26" value="sends result to socket service" style="text;html=1;align=center;verticalAlign=middle;resizable=0;points=[];autosize=1;strokeColor=none;fillColor=none;" vertex="1" parent="1">
          <mxGeometry x="265" y="430" width="180" height="30" as="geometry" />
        </mxCell>
        <mxCell id="qWD8q-UGtxWcJ_SHbMnj-27" value="websocket connection" style="text;html=1;align=center;verticalAlign=middle;resizable=0;points=[];autosize=1;strokeColor=none;fillColor=none;" vertex="1" parent="1">
          <mxGeometry y="380" width="140" height="30" as="geometry" />
        </mxCell>
      </root>
    </mxGraphModel>
  </diagram>
</mxfile>
